<?xml version="1.0" standalone="no"?>
<!DOCTYPE svg PUBLIC "-//W3C//DTD SVG 20010904//EN"
 "http://www.w3.org/TR/2001/REC-SVG-20010904/DTD/svg10.dtd">
<svg version="1.0" xmlns="http://www.w3.org/2000/svg"
 width="1563.000000pt" height="1563.000000pt" viewBox="0 0 1563.000000 1563.000000"
 preserveAspectRatio="xMidYMid meet">

<g transform="translate(0.000000,1563.000000) scale(0.100000,-0.100000)"
fill="#000000" stroke="none">
<path d="M0 7815 l0 -7815 7815 0 7815 0 0 7815 0 7815 -7815 0 -7815 0 0
-7815z m3599 1295 c74 -37 110 -101 118 -204 7 -87 -17 -189 -83 -362 -46
-120 -63 -207 -46 -233 17 -25 58 -3 142 76 87 82 100 84 100 15 0 -70 -84
-175 -177 -222 -57 -29 -150 -38 -194 -19 -64 26 -76 131 -35 290 18 70 22 96
13 101 -7 4 -69 8 -138 8 l-126 0 -6 -59 c-4 -33 -10 -111 -13 -173 -4 -62
-11 -121 -16 -131 -11 -22 -100 -67 -132 -67 -29 0 -54 22 -62 57 -11 41 4
202 25 283 11 41 19 75 18 76 -1 1 -27 -2 -57 -7 -100 -14 -130 -12 -130 11 0
18 -7 20 -63 20 l-62 0 -35 -62 c-18 -35 -49 -87 -68 -117 -33 -52 -34 -55
-16 -68 32 -24 122 -45 157 -38 22 5 56 33 115 94 66 69 84 83 92 71 43 -67
-55 -227 -170 -279 -71 -32 -169 -29 -249 9 l-64 30 -33 -25 c-72 -55 -195
-72 -263 -37 -77 39 -95 158 -33 213 54 48 103 55 267 36 15 -1 28 14 57 68
51 96 51 99 -19 91 -181 -21 -173 -22 -173 7 0 47 98 102 227 127 l61 12 22
77 c53 184 51 171 32 179 -43 18 -187 6 -279 -21 -105 -32 -137 -32 -141 -1
-7 49 137 134 261 155 136 22 316 -5 372 -57 25 -23 27 -29 21 -77 -6 -43 -43
-168 -71 -239 -6 -14 1 -17 42 -20 44 -3 48 -5 47 -28 0 -14 -4 -38 -9 -54
l-8 -29 34 25 c31 24 141 68 171 68 7 0 24 26 37 58 59 139 160 281 240 336
96 67 214 81 300 36z m1790 0 c74 -37 110 -101 118 -204 7 -87 -17 -189 -83
-362 -46 -120 -63 -207 -46 -233 17 -25 58 -3 142 76 64 60 84 74 91 62 5 -8
9 -18 9 -24 1 -5 12 32 26 84 33 125 98 290 137 348 19 27 45 52 64 60 29 11
33 11 43 -6 14 -27 -3 -152 -41 -292 -25 -94 -32 -140 -36 -259 -3 -80 -9
-153 -15 -163 -11 -22 -100 -67 -132 -67 -41 0 -56 34 -56 130 l0 85 -19 -31
c-29 -47 -96 -108 -149 -134 -56 -29 -149 -38 -193 -19 -64 26 -76 131 -35
290 18 70 22 96 13 101 -7 4 -69 8 -138 8 l-126 0 -6 -59 c-4 -33 -10 -111
-13 -173 -4 -62 -11 -121 -16 -131 -11 -22 -100 -67 -132 -67 -29 0 -54 22
-62 57 -11 41 4 202 25 283 11 41 19 75 18 76 -1 1 -27 -2 -57 -7 -98 -14
-130 -12 -130 10 0 30 74 86 145 110 36 11 71 21 78 21 6 0 23 26 36 58 59
139 160 281 240 336 96 67 214 81 300 36z m2177 1 c92 -41 135 -152 115 -295
-10 -72 -24 -119 -105 -343 -30 -83 -35 -160 -10 -170 24 -9 53 9 135 85 81
75 99 79 99 18 0 -74 -92 -184 -193 -231 -73 -35 -168 -35 -202 -1 -52 52 -54
151 -5 307 15 48 16 65 7 71 -7 4 -69 8 -138 8 l-126 0 -7 -47 c-4 -27 -9
-100 -12 -163 -7 -149 -14 -166 -78 -196 -85 -40 -120 -28 -137 44 -11 48 1
171 26 266 23 87 26 83 -64 73 -93 -11 -112 -7 -104 23 9 34 80 79 161 103
l73 21 39 84 c95 202 216 329 345 363 43 12 132 1 181 -20z m2424 3 c81 -34
122 -112 122 -233 0 -92 -16 -155 -83 -337 -40 -110 -49 -146 -47 -188 5 -79
27 -75 132 24 48 44 90 79 94 76 4 -2 7 44 8 103 1 122 30 223 90 322 42 69
138 161 205 195 162 82 402 66 489 -32 17 -20 29 -41 27 -47 -4 -13 -13 -13
-218 -2 -129 7 -139 7 -183 -14 -64 -32 -138 -116 -172 -198 -25 -62 -28 -79
-29 -188 0 -98 3 -126 19 -155 23 -44 63 -88 96 -105 73 -38 223 -21 312 36
47 30 128 128 128 155 0 7 -19 19 -42 26 -26 7 -60 30 -85 54 -66 66 -82 163
-40 244 63 126 234 130 296 8 15 -32 25 -72 29 -118 l5 -71 23 16 c37 24 64
20 64 -11 0 -38 -28 -79 -70 -103 -32 -18 -41 -30 -60 -92 -74 -228 -260 -351
-510 -336 -52 3 -107 13 -142 27 -73 27 -158 104 -192 171 l-25 50 -19 -45
c-49 -110 -175 -196 -287 -196 -48 0 -68 5 -88 21 -54 42 -59 142 -14 296 20
68 21 83 10 88 -8 3 -70 5 -138 5 l-123 0 -7 -41 c-4 -23 -10 -101 -14 -175
-8 -151 -16 -169 -96 -200 -59 -22 -86 -16 -108 26 -23 44 -18 146 14 281 11
49 19 92 17 94 -1 1 -25 -1 -53 -5 -77 -13 -135 -12 -136 3 0 6 -8 -13 -18
-43 -43 -135 -129 -244 -237 -302 -95 -51 -240 -71 -343 -47 -31 7 -47 6 -57
-2 -9 -7 -34 -10 -66 -7 -55 6 -75 22 -84 68 -4 16 -21 36 -47 52 -53 33 -94
77 -99 103 -3 22 19 25 102 11 l45 -8 12 74 c26 161 131 423 186 463 l29 20
19 -24 c27 -32 24 -69 -17 -254 -51 -231 -62 -316 -44 -327 22 -14 133 -23
179 -15 91 15 188 116 226 234 26 81 31 203 11 281 -20 78 -56 127 -116 158
-76 38 -143 30 -401 -48 -42 -13 -84 -20 -93 -17 -73 28 104 160 274 203 83
21 212 14 292 -16 172 -64 253 -201 253 -427 -1 -94 1 -109 12 -93 20 29 78
61 155 85 70 22 71 23 94 76 82 196 221 352 344 386 52 14 138 8 190 -13z
m-5339 -5 c46 -46 8 -206 -78 -327 -43 -61 -128 -147 -170 -174 -25 -15 -32
-25 -27 -37 4 -9 18 -54 31 -101 57 -203 73 -210 199 -89 93 89 110 92 108 19
-4 -156 -275 -315 -383 -225 -16 14 -34 40 -40 58 -8 23 -51 289 -51 314 0 1
-16 10 -35 19 -42 20 -59 47 -51 80 8 32 71 51 115 36 30 -11 33 -9 62 31 52
71 79 123 139 264 32 75 64 140 72 144 26 17 87 10 109 -12z m1440 7 c156 -33
239 -120 239 -249 0 -110 -46 -196 -136 -256 -25 -16 -50 -31 -56 -33 -10 -4
44 -204 68 -250 25 -48 55 -38 149 52 47 45 89 78 97 75 9 -4 19 22 35 97 13
57 38 160 57 229 69 252 121 349 186 349 63 0 65 -64 9 -318 -54 -251 -86
-437 -95 -555 -6 -83 -10 -99 -27 -108 -32 -18 -106 -1 -139 31 -25 25 -28 36
-28 91 l0 62 -29 -39 c-63 -89 -161 -144 -252 -144 -102 0 -126 39 -159 259
-11 73 -20 135 -20 137 0 2 -18 13 -39 24 -68 34 -67 91 1 112 31 9 47 9 71 0
30 -12 34 -10 59 20 38 46 51 90 46 159 -3 48 -10 65 -33 89 -41 43 -82 53
-194 48 -87 -4 -105 -9 -187 -46 -51 -23 -96 -42 -102 -42 -39 0 -5 70 56 118
115 91 264 121 423 88z m5401 4 c20 -6 50 -26 67 -45 63 -73 65 -159 7 -405
-59 -246 -59 -322 0 -349 63 -28 137 6 193 90 76 113 104 243 99 463 -2 133 0
156 15 180 38 57 139 95 164 61 20 -29 16 -149 -13 -340 -27 -186 -41 -381
-30 -438 11 -57 36 -49 127 39 83 81 109 90 109 35 0 -29 14 -41 49 -41 13 0
19 16 28 73 26 160 132 422 186 462 l29 20 19 -24 c27 -32 24 -69 -17 -254
-51 -231 -62 -316 -44 -327 22 -14 133 -23 179 -15 91 15 188 116 226 234 26
81 31 203 11 281 -20 78 -56 127 -116 158 -76 38 -143 30 -401 -48 -116 -35
-144 -10 -67 63 90 86 260 143 398 134 193 -12 321 -106 373 -271 28 -91 30
-251 3 -340 -42 -142 -131 -258 -242 -318 -95 -51 -240 -71 -343 -47 -31 7
-47 6 -57 -2 -9 -7 -34 -10 -66 -7 -55 6 -75 22 -84 68 -4 16 -23 37 -52 56
l-47 31 -43 -48 c-57 -63 -129 -99 -202 -99 -73 0 -97 23 -110 106 -6 32 -10
64 -10 69 -1 6 -8 -3 -17 -20 -31 -59 -67 -97 -117 -126 -43 -24 -62 -29 -122
-29 -148 0 -230 63 -249 191 -6 37 3 87 44 255 61 252 67 296 49 349 -17 53
-46 57 -103 16 -68 -49 -104 -37 -86 27 15 51 30 71 77 98 70 41 123 51 186
34z m2044 -15 c21 -32 17 -62 -46 -360 -53 -251 -80 -423 -80 -515 0 -79 -15
-94 -84 -85 -66 8 -93 26 -105 72 -15 53 -14 85 9 217 34 202 110 481 160 592
43 97 111 133 146 79z m-9315 -25 c23 -13 26 -71 5 -111 -7 -14 -16 -43 -20
-64 -4 -21 -28 -107 -52 -192 -63 -216 -84 -312 -98 -432 -10 -95 -14 -106
-38 -124 -37 -27 -129 -35 -147 -13 -24 28 -8 239 28 383 26 105 100 337 126
397 7 17 4 18 -46 11 -75 -10 -128 -31 -173 -67 -38 -30 -39 -31 -53 -12 -24
32 -10 94 31 131 56 51 210 91 394 102 13 0 32 -4 43 -9z m-926 -2385 c120
-20 181 -99 161 -210 -15 -80 -114 -144 -238 -153 l-67 -5 -10 -51 c-6 -28
-15 -77 -20 -109 -12 -67 -17 -77 -37 -77 -21 0 -18 29 34 328 33 183 53 277
63 283 13 8 26 8 114 -6z m3480 -10 c146 -40 175 -206 53 -298 -41 -31 -127
-57 -189 -57 l-47 0 -17 -97 c-9 -54 -19 -108 -22 -120 -6 -28 -43 -32 -43 -5
0 52 101 586 112 593 15 10 85 2 153 -16z m2242 13 c6 -7 33 -116 62 -243 29
-126 55 -238 59 -247 5 -12 44 54 137 233 72 138 136 255 143 261 35 30 34
-11 -11 -302 -25 -161 -50 -297 -56 -303 -8 -8 -14 -8 -23 1 -9 9 -6 52 16
195 15 100 30 198 33 217 3 24 -33 -37 -110 -185 -106 -203 -135 -243 -151
-216 -4 6 -29 108 -57 228 -27 119 -51 218 -52 220 -2 1 -21 -97 -42 -220 -20
-122 -40 -228 -42 -234 -6 -15 -29 -17 -38 -3 -6 9 91 586 101 602 7 12 20 10
31 -4z m998 3 c3 -6 -6 -73 -20 -149 -14 -77 -25 -142 -25 -145 0 -3 19 -7 43
-9 34 -2 42 -7 42 -23 0 -17 -8 -20 -47 -23 -54 -4 -49 6 -74 -140 -11 -67
-22 -106 -31 -109 -28 -11 -31 14 -13 112 26 139 27 133 -22 137 -35 2 -43 7
-43 23 0 17 8 20 47 23 55 4 49 -8 79 162 12 69 26 131 31 138 12 14 25 16 33
3z m1712 -2 c7 -7 3 -49 -13 -142 -13 -73 -24 -137 -24 -144 0 -7 18 -13 43
-15 34 -2 42 -7 42 -23 0 -17 -8 -21 -50 -25 l-49 -5 -18 -100 c-24 -137 -26
-145 -43 -145 -25 0 -25 15 -5 126 11 60 20 112 20 116 0 4 -19 8 -42 10 -35
2 -43 7 -43 23 0 17 8 20 47 23 53 3 45 -15 79 177 25 144 29 151 56 124z
m-6322 -9 c9 -14 -77 -569 -91 -588 -21 -28 -36 -4 -30 47 l7 46 -35 -41 c-20
-23 -49 -47 -66 -54 -28 -11 -34 -11 -58 7 -53 39 -38 151 30 228 43 48 88 67
127 53 13 -5 26 -7 28 -4 2 2 13 64 24 137 11 74 24 144 29 157 10 23 25 29
35 12z m371 0 c8 -8 2 -62 -17 -178 -16 -92 -29 -173 -29 -181 0 -8 14 0 35
18 44 39 86 41 120 6 48 -47 24 -159 -49 -222 -44 -39 -80 -50 -118 -35 -16 6
-30 6 -34 1 -12 -20 -34 -8 -34 18 0 27 87 546 95 571 5 15 17 16 31 2z m1280
-3 c2 -7 -9 -96 -26 -199 -16 -102 -30 -192 -30 -199 0 -7 14 6 31 29 53 72
123 91 149 41 15 -26 14 -146 0 -215 -9 -44 -15 -54 -32 -54 -19 0 -20 4 -14
43 3 23 9 79 13 125 6 78 5 82 -14 82 -32 0 -92 -74 -135 -167 -29 -63 -44
-83 -56 -81 -12 3 -16 12 -14 33 7 71 84 532 92 553 11 24 28 29 36 9z m3149
4 c5 -8 -43 -323 -61 -401 -4 -19 2 -14 31 22 35 47 79 78 110 78 8 0 24 -9
35 -20 24 -24 27 -112 9 -217 -9 -53 -14 -63 -31 -63 -19 0 -20 4 -12 78 14
128 12 166 -9 170 -28 6 -76 -54 -125 -155 -41 -85 -62 -108 -76 -84 -5 8 77
542 90 584 6 18 29 23 39 8z m-2235 -156 c0 -18 -5 -25 -19 -25 -11 0 -23 5
-26 10 -11 18 3 40 25 40 15 0 20 -7 20 -25z m3930 0 c0 -18 -5 -25 -19 -25
-11 0 -23 5 -26 10 -11 18 3 40 25 40 15 0 20 -7 20 -25z m-8218 -146 c64 -34
56 -161 -16 -236 -57 -60 -103 -68 -146 -25 -26 26 -30 38 -30 82 0 119 110
223 192 179z m916 -21 l3 -25 48 25 c42 23 54 25 87 17 29 -8 39 -15 39 -30 0
-17 -6 -20 -38 -17 -81 7 -116 -29 -157 -165 -21 -69 -39 -89 -55 -62 -8 11
23 229 37 267 10 30 32 24 36 -10z m-758 -33 c-10 -106 -6 -190 9 -190 26 0
78 81 106 164 22 66 30 81 47 81 19 0 20 -4 14 -70 -7 -71 -1 -146 14 -170 22
-35 79 62 102 169 12 62 29 84 49 64 13 -13 -12 -125 -42 -187 -56 -120 -144
-130 -165 -18 l-7 34 -28 -43 c-97 -147 -174 -84 -148 120 11 96 14 103 37 99
14 -3 16 -13 12 -53z m612 38 c51 -46 -20 -141 -130 -174 -43 -12 -51 -26 -30
-47 18 -18 69 -14 112 9 40 21 64 15 53 -14 -8 -22 -78 -50 -125 -50 -133 0
-144 192 -15 270 45 27 108 30 135 6z m580 0 c51 -46 -20 -141 -130 -174 -43
-12 -51 -26 -30 -47 18 -18 69 -14 112 9 40 21 64 15 53 -14 -8 -22 -78 -50
-125 -50 -133 0 -144 192 -15 270 45 27 108 30 135 6z m2749 -6 c35 -23 51
-57 27 -57 -8 0 -31 9 -53 20 -47 24 -65 25 -91 6 -18 -14 -18 -16 -2 -32 9
-9 38 -29 65 -43 56 -31 81 -71 65 -107 -16 -34 -67 -57 -108 -49 -38 7 -104
59 -104 81 0 28 28 25 59 -6 25 -26 37 -31 68 -28 30 2 39 8 41 24 2 17 -10
28 -60 56 -71 39 -94 71 -78 112 19 50 113 62 171 23z m163 15 c7 -12 -42
-284 -54 -296 -7 -7 -14 -6 -22 2 -9 9 -7 42 11 150 13 75 25 140 28 145 6 9
31 9 37 -1z m275 -18 c17 -14 31 -32 31 -39 0 -25 -21 -27 -44 -6 -62 58 -166
-9 -166 -107 0 -72 69 -96 120 -42 30 32 60 40 60 16 0 -25 -49 -74 -85 -86
-120 -40 -185 112 -98 229 48 63 130 79 182 35z m262 3 c35 -23 51 -57 27 -57
-8 0 -31 9 -53 20 -47 24 -65 25 -91 6 -18 -14 -18 -16 -2 -32 9 -9 38 -29 65
-43 56 -31 81 -71 65 -107 -16 -34 -67 -57 -108 -49 -38 7 -104 59 -104 81 0
28 28 25 59 -6 25 -26 37 -31 68 -28 30 2 39 8 41 24 2 17 -10 28 -60 56 -71
39 -94 71 -78 112 19 50 113 62 171 23z m1203 12 c20 -9 29 -9 41 1 12 10 19
10 27 2 9 -9 7 -42 -6 -129 -23 -157 -25 -163 -47 -163 -21 0 -23 15 -10 95 8
48 8 49 -7 25 -9 -14 -37 -46 -63 -72 -35 -37 -53 -48 -77 -48 -69 0 -83 75
-32 177 32 65 49 83 95 107 36 19 46 20 79 5z m948 -6 c51 -46 -20 -141 -130
-174 -43 -12 -51 -26 -30 -47 18 -18 69 -14 112 9 40 21 64 15 53 -14 -8 -22
-78 -50 -125 -50 -133 0 -144 192 -15 270 45 27 108 30 135 6z m145 -45 l-6
-63 21 30 c57 78 116 111 145 83 8 -9 17 -34 20 -57 6 -41 6 -41 21 -19 58 88
126 116 150 63 15 -31 15 -119 2 -199 -10 -65 -23 -87 -41 -69 -8 8 -8 38 0
110 11 101 7 147 -13 140 -22 -7 -87 -103 -115 -172 -21 -50 -35 -70 -48 -70
-14 0 -18 7 -16 30 1 17 5 73 8 125 l6 95 -43 -46 c-24 -25 -64 -84 -88 -130
-48 -90 -76 -109 -73 -50 1 19 9 85 18 147 16 102 20 114 38 114 18 0 19 -4
14 -62z m622 51 c24 -9 35 -8 47 2 33 27 37 -4 15 -145 -12 -74 -21 -138 -21
-141 0 -3 -10 -5 -21 -5 -21 0 -21 3 -15 66 l7 67 -40 -51 c-50 -63 -77 -82
-118 -82 -103 0 -45 235 72 286 37 16 35 16 74 3z m475 3 c7 -12 -42 -284 -54
-296 -7 -7 -14 -6 -22 2 -9 9 -7 42 11 150 13 75 25 140 28 145 6 9 31 9 37
-1z m275 -18 c17 -14 31 -32 31 -39 0 -25 -21 -27 -44 -6 -62 58 -166 -9 -166
-107 0 -72 69 -96 120 -42 30 32 60 40 60 16 0 -25 -49 -74 -85 -86 -120 -40
-185 112 -98 229 48 63 130 79 182 35z m262 3 c35 -23 51 -57 27 -57 -8 0 -31
9 -53 20 -47 24 -65 25 -91 6 -18 -14 -18 -16 -2 -32 9 -9 38 -29 65 -43 56
-31 81 -71 65 -107 -16 -34 -67 -57 -108 -49 -38 7 -104 59 -104 81 0 28 28
25 59 -6 25 -26 37 -31 68 -28 30 2 39 8 41 24 2 17 -10 28 -60 56 -71 39 -94
71 -78 112 19 50 113 62 171 23z m-6378 -29 c-4 -24 -8 -79 -8 -123 0 -70 2
-80 18 -83 40 -8 119 103 146 206 9 32 17 42 33 42 19 0 20 -4 14 -60 -4 -33
-18 -126 -31 -206 -41 -247 -100 -334 -225 -334 -34 0 -75 22 -75 40 0 11 16
14 71 15 82 0 101 11 132 78 17 37 40 127 56 225 l6 33 -33 -35 c-63 -66 -128
-70 -153 -10 -17 40 -18 89 -4 170 15 80 16 84 41 84 19 0 20 -3 12 -42z
m1293 -5 c-23 -155 -20 -203 13 -203 44 0 111 94 142 199 13 43 33 61 49 45 9
-9 -16 -196 -46 -349 -19 -96 -67 -191 -108 -216 -64 -39 -171 -34 -171 7 0
17 6 19 60 16 50 -3 65 0 88 18 48 38 84 132 102 265 l7 50 -34 -32 c-30 -29
-75 -53 -99 -53 -5 0 -21 11 -34 25 -22 21 -25 33 -25 99 0 41 5 98 11 126 9
40 15 50 31 50 19 0 20 -4 14 -47z m1270 -198 c9 -22 -44 -107 -64 -103 -23 5
-20 26 12 76 28 44 43 52 52 27z m3930 0 c9 -22 -44 -107 -64 -103 -23 5 -20
26 12 76 28 44 43 52 52 27z m-9865 -675 c31 -135 58 -251 60 -259 3 -7 65
102 138 243 73 140 137 258 142 262 33 20 32 -21 -10 -298 -23 -156 -45 -291
-48 -300 -5 -20 -28 -24 -38 -8 -4 6 8 103 25 216 18 113 30 207 28 209 -2 2
-53 -91 -114 -208 -85 -164 -114 -212 -129 -212 -17 0 -26 27 -71 220 -29 121
-53 222 -54 225 -2 6 -27 -123 -60 -318 -22 -129 -36 -160 -60 -136 -8 8 78
539 96 597 3 10 13 17 22 15 13 -2 29 -57 73 -248z m2473 242 c3 -5 -15 -134
-39 -287 -25 -153 -45 -280 -45 -281 0 -2 62 -5 138 -6 114 -3 137 -6 137 -18
0 -13 -25 -15 -154 -18 -85 -1 -159 2 -164 7 -7 7 73 556 88 599 5 14 31 16
39 4z m5013 -3 c7 -7 3 -49 -13 -142 -13 -73 -24 -137 -24 -144 0 -7 18 -13
43 -15 34 -2 42 -7 42 -23 0 -17 -8 -21 -50 -25 l-49 -5 -18 -100 c-24 -137
-26 -145 -43 -145 -25 0 -25 15 -5 126 11 60 20 112 20 116 0 4 -19 8 -42 10
-35 2 -43 7 -43 23 0 17 8 20 47 23 53 3 45 -15 79 177 25 144 29 151 56 124z
m-6332 -8 c5 -8 -43 -323 -61 -401 -4 -19 2 -14 31 22 35 47 79 78 110 78 8 0
24 -9 35 -20 24 -24 27 -112 9 -217 -9 -53 -14 -63 -31 -63 -19 0 -20 4 -12
78 14 128 12 166 -9 170 -28 6 -76 -54 -125 -155 -41 -85 -62 -108 -76 -84 -5
8 77 542 90 584 6 18 29 23 39 8z m4909 0 c8 -13 -81 -582 -93 -594 -21 -21
-34 5 -28 56 l6 50 -29 -40 c-37 -51 -88 -77 -123 -64 -30 12 -37 29 -37 89 1
113 109 231 186 202 15 -6 28 -9 29 -8 2 2 12 66 24 143 12 77 24 148 27 158
6 18 29 23 38 8z m933 -7 c9 -24 -78 -566 -94 -584 -9 -10 -16 -11 -24 -3 -8
8 2 91 35 298 25 158 48 291 52 296 8 14 24 11 31 -7z m1421 -6 c6 -6 12 -17
12 -25 0 -11 -11 -12 -51 -7 -88 12 -117 -21 -144 -162 -8 -42 -15 -80 -15
-85 0 -5 20 -9 45 -9 38 0 45 -3 45 -20 0 -17 -7 -20 -50 -20 -27 0 -50 -4
-50 -10 0 -5 -7 -58 -16 -117 -16 -110 -31 -146 -51 -121 -8 9 -6 48 6 130
l17 117 -35 3 c-24 2 -37 9 -39 20 -3 13 6 17 39 20 l43 3 12 71 c23 139 58
206 117 223 35 11 95 5 115 -11z m1088 7 c52 -21 39 -41 -24 -37 -85 6 -110
-21 -137 -148 -23 -109 -23 -110 31 -110 38 0 45 -3 42 -17 -2 -14 -15 -19
-50 -21 -53 -3 -50 3 -69 -145 -13 -98 -24 -123 -48 -108 -10 7 -10 28 3 115
21 139 22 134 -16 138 -22 2 -34 9 -36 21 -3 14 4 17 36 17 38 0 41 2 47 33
36 187 54 229 115 259 43 22 60 22 106 3z m277 4 c27 -7 37 -15 37 -30 0 -18
-5 -19 -50 -13 -86 11 -118 -26 -145 -170 -8 -39 -11 -74 -7 -78 4 -4 25 -8
47 -10 27 -2 40 -8 40 -18 0 -11 -14 -16 -50 -18 l-51 -3 -18 -122 c-18 -126
-27 -150 -48 -129 -9 9 -9 34 1 109 7 54 15 108 18 120 4 19 0 22 -34 25 -53
4 -52 31 2 38 l39 5 17 90 c23 119 51 173 104 196 47 22 49 22 98 8z m707 -16
c0 -56 -68 -455 -79 -466 -8 -8 -14 -8 -22 0 -9 9 -3 69 24 243 20 127 39 235
42 241 13 20 35 9 35 -18z m-9026 -129 c8 -21 -1 -34 -24 -34 -22 0 -34 15
-26 35 7 20 42 19 50 -1z m2621 -9 c0 -23 -34 -33 -45 -14 -13 20 1 40 24 37
13 -2 21 -10 21 -23z m-645 -170 l0 -36 22 21 c50 46 153 49 153 4 0 -17 -6
-19 -48 -16 -44 4 -51 1 -81 -31 -23 -25 -42 -62 -60 -121 -26 -80 -44 -103
-61 -76 -6 9 32 267 42 283 2 4 11 7 19 7 9 0 14 -11 14 -35z m3771 6 c22 -23
29 -39 29 -69 0 -161 -164 -269 -224 -148 -17 35 -18 46 -8 94 13 64 47 112
94 135 48 24 76 21 109 -12z m772 17 c36 -19 46 -40 46 -93 1 -62 -26 -122
-68 -158 -41 -34 -74 -42 -110 -27 -41 17 -54 48 -49 118 8 117 104 201 181
160z m1128 -17 c22 -23 29 -39 29 -69 0 -161 -164 -269 -224 -148 -17 35 -18
46 -8 94 13 64 47 112 94 135 48 24 76 21 109 -12z m-8501 6 c21 -11 27 -11
37 2 9 13 14 14 24 3 11 -10 10 -38 -6 -150 -18 -124 -22 -137 -40 -137 -22 0
-24 18 -12 95 l8 45 -39 -55 c-62 -86 -133 -115 -166 -68 -44 63 23 214 119
266 26 15 45 14 75 -1z m349 -13 c17 -14 31 -32 31 -39 0 -25 -21 -27 -44 -6
-62 58 -166 -9 -166 -107 0 -72 69 -96 120 -42 30 32 60 40 60 16 0 -25 -49
-74 -85 -86 -120 -40 -185 112 -98 229 48 63 130 79 182 35z m476 14 c8 -19
-41 -278 -54 -291 -8 -8 -14 -8 -22 0 -9 9 -6 45 10 140 12 70 25 136 27 146
6 20 32 23 39 5z m129 4 c2 -4 0 -29 -5 -56 -5 -27 -8 -51 -6 -53 2 -1 18 18
35 42 17 25 48 53 68 62 32 16 38 16 62 3 35 -21 43 -64 31 -175 -10 -94 -26
-128 -47 -102 -9 10 -9 28 -2 67 5 29 10 79 10 111 0 51 -3 59 -19 59 -10 0
-31 -12 -46 -27 -29 -30 -115 -170 -115 -189 0 -20 -29 -39 -42 -26 -8 8 -6
46 11 143 12 73 24 136 27 140 6 11 31 12 38 1z m477 -2 c28 -16 25 -71 -6
-108 -27 -32 -117 -82 -147 -82 -22 0 -23 -13 -2 -34 22 -22 70 -20 116 6 33
19 41 20 49 8 12 -20 -29 -56 -82 -70 -141 -38 -204 138 -87 247 42 40 117 55
159 33z m935 -15 c19 -29 12 -59 -25 -99 -27 -30 -114 -76 -143 -76 -22 0 -23
-8 -1 -32 22 -24 67 -23 114 4 32 17 42 19 52 9 28 -29 -90 -90 -147 -75 -37
9 -75 51 -82 91 -19 100 68 201 173 203 34 0 46 -5 59 -25z m264 12 c21 -11
27 -11 37 2 9 13 14 14 24 3 11 -10 10 -38 -6 -150 -18 -124 -22 -137 -40
-137 -22 0 -24 18 -12 95 l8 45 -39 -55 c-62 -86 -133 -115 -166 -68 -44 63
23 214 119 266 26 15 45 14 75 -1z m484 5 c2 -4 0 -29 -5 -56 -5 -27 -8 -51
-6 -53 2 -1 18 18 35 42 17 25 48 53 68 62 32 16 38 16 62 3 35 -21 43 -64 31
-175 -10 -94 -26 -128 -47 -102 -9 10 -9 28 -2 67 5 29 10 79 10 111 0 51 -3
59 -19 59 -10 0 -31 -12 -46 -27 -29 -30 -115 -170 -115 -189 0 -20 -29 -39
-42 -26 -8 8 -6 46 11 143 12 73 24 136 27 140 6 11 31 12 38 1z m336 -8 c0
-9 -9 -73 -21 -143 -21 -124 -38 -166 -59 -145 -8 8 -4 52 14 147 13 75 27
141 31 147 10 16 35 12 35 -6z m122 -42 l-3 -52 54 55 c52 53 84 67 113 47 34
-22 42 -90 24 -211 -10 -69 -23 -92 -41 -74 -8 8 -8 38 0 110 7 55 9 107 5
116 -19 49 -83 -11 -149 -140 -44 -86 -55 -98 -72 -80 -9 9 -7 39 8 127 27
161 27 162 47 158 14 -3 16 -13 14 -56z m528 42 c11 -11 -51 -348 -78 -425
-41 -114 -94 -169 -165 -169 -54 0 -114 59 -74 73 6 2 20 -3 30 -11 49 -43
122 2 158 97 19 52 58 210 59 238 0 7 -22 -10 -48 -37 -40 -42 -54 -50 -84
-50 -49 0 -68 21 -68 75 0 75 44 157 110 201 29 21 44 24 93 21 32 -2 62 -8
67 -13z m591 2 c23 -12 29 -12 41 1 12 11 17 12 25 1 12 -14 -22 -265 -37
-282 -14 -14 -42 2 -36 21 2 10 7 38 11 63 l6 45 -23 -30 c-49 -67 -98 -105
-132 -105 -44 0 -60 21 -59 79 1 80 67 183 133 210 34 13 41 13 71 -3z m203 5
c3 -5 2 -31 -3 -57 -5 -27 -8 -50 -7 -51 1 -2 17 17 35 41 44 59 91 84 126 68
42 -19 49 -53 36 -171 -11 -102 -23 -130 -47 -111 -7 7 -8 25 -3 57 4 27 8 78
8 116 1 60 -1 67 -18 67 -27 0 -83 -69 -131 -161 -43 -83 -56 -97 -72 -81 -7
7 -3 52 12 138 12 71 23 135 25 142 5 14 31 16 39 3z m1006 -4 c21 -11 27 -11
37 2 9 13 14 14 24 3 11 -10 10 -38 -6 -150 -18 -124 -22 -137 -40 -137 -22 0
-24 18 -12 95 l8 45 -39 -55 c-62 -86 -133 -115 -166 -68 -44 63 23 214 119
266 26 15 45 14 75 -1z m2310 -2 c32 -16 48 -51 31 -68 -8 -8 -17 -5 -34 11
-36 34 -82 29 -123 -12 -29 -29 -34 -41 -34 -81 0 -64 13 -85 54 -85 24 0 42
9 64 31 20 20 37 29 47 25 14 -5 14 -8 0 -37 -22 -42 -95 -75 -139 -62 -83 24
-102 156 -33 232 54 58 112 75 167 46z m1176 -10 c19 -29 12 -59 -25 -99 -27
-30 -114 -76 -143 -76 -22 0 -23 -8 -1 -32 22 -24 67 -23 114 4 32 17 42 19
52 9 28 -29 -90 -90 -147 -75 -37 9 -75 51 -82 91 -19 100 68 201 173 203 34
0 46 -5 59 -25z m300 0 c19 -29 12 -59 -25 -99 -27 -30 -114 -76 -143 -76 -22
0 -23 -8 -1 -32 22 -24 67 -23 114 4 32 17 42 19 52 9 28 -29 -90 -90 -147
-75 -37 9 -75 51 -82 91 -19 100 68 201 173 203 34 0 46 -5 59 -25z m-5496
-235 c0 -4 -12 -28 -26 -54 -17 -30 -32 -46 -45 -46 -10 0 -19 5 -19 10 0 15
29 71 47 92 14 16 43 15 43 -2z m5610 0 c0 -24 -26 -38 -42 -22 -16 16 -2 42
22 42 13 0 20 -7 20 -20z"/>
<path d="M3386 8945 c-55 -20 -102 -70 -142 -151 -52 -109 -58 -104 111 -104
l144 0 11 38 c6 20 14 67 17 104 5 65 5 68 -25 97 -34 34 -57 37 -116 16z"/>
<path d="M2207 8293 c-4 -3 -7 -17 -7 -29 0 -43 64 -42 100 1 12 14 11 18 -1
26 -16 10 -83 12 -92 2z"/>
<path d="M5176 8945 c-55 -20 -102 -70 -142 -151 -52 -109 -58 -104 111 -104
l144 0 11 38 c6 20 14 67 17 104 5 65 5 68 -25 97 -34 34 -57 37 -116 16z"/>
<path d="M7356 8945 c-69 -24 -125 -92 -164 -197 l-22 -58 149 0 149 0 17 73
c21 91 14 149 -22 177 -30 23 -53 24 -107 5z"/>
<path d="M9780 8947 c-65 -21 -143 -126 -175 -234 l-6 -23 150 0 c83 0 151 3
151 8 0 4 7 40 15 80 16 78 9 138 -19 161 -21 18 -76 21 -116 8z"/>
<path d="M10967 8823 c-23 -22 5 -124 38 -136 12 -5 15 4 15 56 0 61 -11 87
-35 87 -7 0 -15 -3 -18 -7z"/>
<path d="M3206 6649 c-11 -35 -48 -271 -43 -276 11 -10 142 18 179 40 99 55
101 175 5 217 -60 26 -136 36 -141 19z"/>
<path d="M6641 6608 c-6 -29 -15 -82 -21 -118 -6 -36 -13 -78 -16 -94 l-6 -29
58 7 c125 15 204 76 204 156 0 66 -57 111 -157 125 l-51 7 -11 -54z"/>
<path d="M5200 6311 c-54 -57 -78 -171 -35 -171 41 0 148 168 124 196 -20 24
-51 16 -89 -25z"/>
<path d="M5776 6297 c-20 -26 -66 -118 -66 -132 0 -2 7 -10 15 -19 32 -31 103
18 131 90 23 59 13 94 -26 94 -21 0 -36 -9 -54 -33z"/>
<path d="M3580 6322 c-36 -36 -57 -103 -44 -140 7 -20 17 -28 41 -30 25 -3 36
4 61 34 33 39 49 105 37 143 -10 32 -60 28 -95 -7z"/>
<path d="M4345 6331 c-37 -23 -61 -49 -70 -79 -6 -22 -5 -23 17 -17 68 21 128
67 128 97 0 24 -36 24 -75 -1z"/>
<path d="M4925 6331 c-37 -23 -61 -49 -70 -79 -6 -22 -5 -23 17 -17 68 21 128
67 128 97 0 24 -36 24 -75 -1z"/>
<path d="M9582 6295 c-54 -62 -78 -165 -39 -165 17 0 100 93 127 144 22 40 23
48 10 56 -31 20 -58 10 -98 -35z"/>
<path d="M10525 6331 c-37 -23 -61 -49 -70 -79 -6 -22 -5 -23 17 -17 68 21
128 67 128 97 0 24 -36 24 -75 -1z"/>
<path d="M11317 6320 c-54 -43 -97 -175 -60 -187 32 -11 163 168 141 194 -16
19 -52 16 -81 -7z"/>
<path d="M8532 5325 c-58 -49 -95 -167 -56 -182 38 -14 159 162 133 194 -17
20 -44 16 -77 -12z"/>
<path d="M9751 5315 c-35 -40 -44 -67 -39 -115 4 -39 25 -55 62 -46 48 12 99
125 77 173 -17 36 -62 31 -100 -12z"/>
<path d="M10548 5323 c-32 -33 -48 -73 -48 -117 0 -84 90 -72 131 18 21 47 24
97 7 114 -21 21 -63 14 -90 -15z"/>
<path d="M11651 5315 c-35 -40 -44 -67 -39 -115 4 -39 25 -55 62 -46 48 12 99
125 77 173 -17 36 -62 31 -100 -12z"/>
<path d="M3179 5313 c-17 -15 -40 -45 -50 -68 -20 -43 -25 -115 -9 -115 36 0
159 163 146 195 -9 24 -51 18 -87 -12z"/>
<path d="M4605 5335 c-60 -31 -105 -115 -52 -100 39 12 106 55 117 76 21 39
-11 51 -65 24z"/>
<path d="M5518 5328 c-36 -21 -78 -81 -66 -93 9 -9 98 32 125 57 54 51 11 77
-59 36z"/>
<path d="M5809 5313 c-17 -15 -40 -45 -50 -68 -20 -43 -25 -115 -9 -115 36 0
159 163 146 195 -9 24 -51 18 -87 -12z"/>
<path d="M7210 5302 c-66 -65 -92 -162 -47 -170 24 -5 85 59 127 132 26 46 30
60 20 71 -22 26 -52 16 -100 -33z"/>
<path d="M7876 5319 c-36 -28 -76 -110 -76 -154 0 -47 16 -45 67 8 59 61 105
138 91 154 -16 19 -52 16 -82 -8z"/>
<path d="M9079 5313 c-17 -15 -40 -45 -50 -68 -20 -43 -25 -115 -9 -115 36 0
159 163 146 195 -9 24 -51 18 -87 -12z"/>
<path d="M12538 5328 c-36 -21 -78 -81 -66 -93 9 -9 98 32 125 57 54 51 11 77
-59 36z"/>
<path d="M12838 5328 c-36 -21 -78 -81 -66 -93 9 -9 98 32 125 57 54 51 11 77
-59 36z"/>
</g>
</svg>
